<svg xmlns="http://www.w3.org/2000/svg" viewBox="0 0 1440 1000" fill="none">
  <title>世界之旅城市群岛</title>
  <desc>蓝色水湾环绕着彩色街区，沿着道路可以抵达车站、住宅、城市广场和高塔。</desc>
  <defs>
    <pattern id="water" width="100" height="80" patternUnits="userSpaceOnUse">
      <path d="M15 36h22m33 29h12" stroke="#91c9da" stroke-width="2" stroke-linecap="round"/>
    </pattern>
    <pattern id="windows" width="18" height="23" patternUnits="userSpaceOnUse">
      <rect x="6" y="5" width="6" height="11" rx="1" fill="#edf7ff"/>
    </pattern>
    <g id="tree">
      <ellipse cy="15" rx="16" ry="6" fill="#488d7b" opacity=".14"/>
      <path d="M0 2v17" stroke="#649580" stroke-width="4"/>
      <path d="M-14 0c0-26 28-26 28 0 0 17-28 17-28 0Z" fill="#70b596"/>
      <path d="M0-20C14-17 22 13 0 12Z" fill="#4e9c82"/>
    </g>
    <g id="house">
      <path d="m-40 12 40 20 40-20V-30L0-50l-40 20Z" fill="#fff"/>
      <path d="m0-10 40-20v42L0 32Z" fill="#dbe6ef"/>
      <path d="m-48-29 48-36 48 36L0-5Z" fill="#ed8290"/>
      <path d="M0-65 48-29 0-5Z" fill="#cd6277"/>
      <path d="m-27-4 12 6v14l-12-6Z" fill="#86b6d1"/>
      <path d="m13-3 12-6V6L13 12Z" fill="#7fa9c6"/>
      <path d="m-6 10 6 3v19l-6-3Z" fill="#587e99"/>
    </g>
    <g id="blue-house">
      <path d="m-40 12 40 20 40-20V-30L0-50l-40 20Z" fill="#fff"/>
      <path d="m0-10 40-20v42L0 32Z" fill="#e1e8f1"/>
      <path d="m-48-29 48-36 48 36L0-5Z" fill="#83b2e0"/>
      <path d="M0-65 48-29 0-5Z" fill="#5b8dbc"/>
      <path d="m-28-4 13 6v14l-13-6Zm17 8 7 4v13l-7-4Z" fill="#a0cce0"/>
      <path d="m14-3 12-6V6L14 12Z" fill="#7299b9"/>
    </g>
    <g id="townhouse">
      <path d="m-28 16 28 14 28-14v-76L0-76l-28 16Z" fill="#f6ce6e"/>
      <path d="M0-46 28-60v76L0 30Z" fill="#ddb454"/>
      <path d="m-34-59 34-22 34 22L0-42Z" fill="#fff4d0"/>
      <path d="m-19 0 8 4v10l-8-4Zm0-22 8 4v10l-8-4Zm0-22 8 4v10l-8-4Z" fill="#fff9e9"/>
      <path d="m10-25 8-4v11l-8 4Zm0 22 8-4V4l-8 4Z" fill="#fff1ca"/>
    </g>
  </defs>
  <path fill="#dfedf5" d="M0 0h1440v1000H0z"/>
  <path d="M-80 570C140 470 178 280 404 360s339-36 508-180 339-49 580 72v800H-80Z" fill="#a9d8e5"/>
  <path d="M-80 570C140 470 178 280 404 360s339-36 508-180 339-49 580 72v800H-80Z" fill="url(#water)"/>
  <path d="m102 579 359-217 521 289-359 218L102 595Z" fill="#93b5b4"/>
  <path d="m102 579 359-217 521 273-359 218Z" fill="#e5f0df"/>
  <path d="m800 388 288-164 375 203-288 172-375-195Z" fill="#9bb8b7"/>
  <path d="m800 388 288-164 375 203-288 156Z" fill="#edf3e4"/>
  <path d="m-70 891 240-141 264 143-240 157Z" fill="#a0bdb6"/>
  <path d="m-70 875 240-141 264 143-240 141Z" fill="#e6efde"/>
  <path d="m238 507 496 265M372 425l496 264M183 621l359-216M362 717l359-216M542 812l359-216" stroke="#fff" stroke-width="28"/>
  <path d="m238 507 496 265M372 425l496 264M183 621l359-216M362 717l359-216M542 812l359-216" stroke="#c5d4dd" stroke-width="2" stroke-dasharray="8 10"/>
  <path d="m955 302 359 196m-436-72 316-178m-155 255 315-177" stroke="#fff" stroke-width="24"/>
  <path d="m955 302 359 196m-436-72 316-178m-155 255 315-177" stroke="#c5d4dd" stroke-width="2" stroke-dasharray="8 10"/>
  <path d="m774 541 112-67" stroke="#7e9ead" stroke-width="35"/>
  <path d="m774 534 112-67" stroke="#fff" stroke-width="28"/>
  <path d="m774 534 112-67" stroke="#c5d4dd" stroke-width="2" stroke-dasharray="8 10"/>
  <path d="m255 783 79-48" stroke="#7e9ead" stroke-width="34"/>
  <path d="m255 776 79-48" stroke="#fff" stroke-width="27"/>
  <path d="m255 776 79-48" stroke="#c5d4dd" stroke-width="2" stroke-dasharray="8 10"/>
  <path d="m391 502 78-45 74 40-78 46Z" fill="#acd0af"/>
  <path d="m575 718 78-46 74 40-78 46Z" fill="#b6d6b6"/>
  <path d="m186 574 65-38 65 36-64 39Z" fill="#c4dcb8"/>
  <path d="m641 572 71-43 80 43-70 44Z" fill="#d4e3c8"/>
  <use href="#house" transform="translate(376 552)"/>
  <use href="#blue-house" transform="translate(551 643)"/>
  <use href="#house" transform="translate(717 731)"/>
  <use href="#blue-house" transform="translate(371 669)"/>
  <use href="#townhouse" transform="translate(538 538)"/>
  <use href="#townhouse" transform="translate(585 564)"/>
  <use href="#house" transform="translate(876 673) scale(.8)"/>
  <use href="#tree" transform="translate(454 472)"/>
  <use href="#tree" transform="translate(487 494)"/>
  <use href="#tree" transform="translate(430 497)"/>
  <use href="#tree" transform="translate(626 708)"/>
  <use href="#tree" transform="translate(667 729)"/>
  <use href="#tree" transform="translate(655 687)"/>
  <use href="#tree" transform="translate(240 558)"/>
  <use href="#tree" transform="translate(278 580)"/>
  <use href="#tree" transform="translate(460 692)"/>
  <use href="#tree" transform="translate(584 788)"/>
  <use href="#tree" transform="translate(491 823)"/>
  <g transform="translate(707 574)">
    <ellipse cy="10" rx="33" ry="18" fill="#bfd5dc"/>
    <ellipse cy="5" rx="33" ry="18" fill="#fff"/>
    <ellipse cy="4" rx="26" ry="13" fill="#83c3df"/>
    <path d="M0 3v-37m0 0c-20-4-20 12-20 12M0-34c20-4 20 12 20 12" stroke="#c7e8f4" stroke-width="4" stroke-linecap="round"/>
  </g>
  <g transform="translate(1110 362)">
    <path d="m-48 23 48 26 49-26V-130L0-153l-48 23Z" fill="#e2ebf3"/>
    <path d="M0-105 49-130V23L0 49Z" fill="#9ab5d0"/>
    <path d="m-48-130 48-27 49 27L0-105Z" fill="#fff"/>
    <path d="m-39-119 30 15V30l-30-15Z" fill="url(#windows)"/>
    <path d="m8-100 32-17V17L8 34Z" fill="url(#windows)"/>
    <path d="M0-130v-43" stroke="#6f96b5" stroke-width="3"/>
  </g>
  <use href="#townhouse" transform="translate(998 397) scale(1.1)"/>
  <use href="#house" transform="translate(1192 480)"/>
  <use href="#blue-house" transform="translate(1355 389)"/>
  <use href="#tree" transform="translate(937 408)"/>
  <use href="#tree" transform="translate(963 425)"/>
  <use href="#tree" transform="translate(1237 320)"/>
  <use href="#tree" transform="translate(1272 339)"/>
  <use href="#tree" transform="translate(1280 505)"/>
  <use href="#tree" transform="translate(1308 484)"/>
  <g transform="translate(142 846)">
    <path d="m-66 14 69 37 100-57-70-36Z" fill="#d3dfeb"/>
    <path d="m-66-12 69 37 100-57v26L3 51-66 14Z" fill="#fff"/>
    <path d="m-76-17 108-61 82 44L6 28Z" fill="#85a9c9"/>
    <path d="m-52 3 10 5v18l-10-5Zm20 11 10 5v18l-10-5Zm20 11 10 5v18l-10-5Z" fill="#a1c7d8"/>
    <path d="m31 20 57-32v13L31 33Z" fill="#85a9c9"/>
  </g>
  <use href="#tree" transform="translate(53 862)"/>
  <use href="#tree" transform="translate(267 881)"/>
  <use href="#tree" transform="translate(296 862)"/>
  <g transform="translate(986 841) rotate(-26)">
    <ellipse cy="21" rx="62" ry="17" fill="#92c6d7"/>
    <path d="m-57 0 18 26h76L59 0Z" fill="#fff"/>
    <path d="m-57 0 18 10h80L59 0Z" fill="#cfdfeb"/>
    <path d="M-26 0v-21h53V0" fill="#fff"/>
    <path d="M-17-15h11v9h-11Zm20 0h11v9H3Z" fill="#86b8d4"/>
    <path d="M0-21v-15" stroke="#6b95b5" stroke-width="3"/>
  </g>
  <g transform="translate(731 305) rotate(20)" fill="#fff" stroke="#9cbed3" stroke-width="1.5" stroke-linejoin="round">
    <path d="M0-43c5 0 6 6 6 13v22l37 26v8L6 12v23l10 10v6L0 45l-16 6v-6l10-10V12l-37 14v-8L-6-8v-22c0-7 1-13 6-13Z"/>
  </g>
  <path d="M569 165c60-41 131-16 154 65" stroke="#91b4c8" stroke-width="2" stroke-dasharray="7 10" stroke-linecap="round"/>
</svg>
